<svg t="1599309592997" class="icon" viewBox="0 0 1024 1024" version="1.1" xmlns="http://www.w3.org/2000/svg" p-id="3813"
     width="200" height="200">
    <path d="M832 853.333333h-640a21.333333 21.333333 0 0 1 0-42.666666h640a21.333333 21.333333 0 0 1 0 42.666666"
          p-id="3814"></path>
    <path d="M649.130667 640H192a21.333333 21.333333 0 0 1 0-42.666667h457.130667a21.333333 21.333333 0 0 1 0 42.666667"
          p-id="3815"></path>
    <path d="M470.101333 426.666667H192a21.333333 21.333333 0 0 1 0-42.666667h278.101333a21.333333 21.333333 0 0 1 0 42.666667"
          p-id="3816"></path>
    <path d="M279.637333 213.333333H192a21.333333 21.333333 0 0 1 0-42.666666h87.637333a21.333333 21.333333 0 0 1 0 42.666666"
          p-id="3817"></path>
</svg>
